<mxfile host="app.diagrams.net" agent="Mozilla/5.0 (Macintosh; Intel Mac OS X 10_15_7) AppleWebKit/537.36 (KHTML, like Gecko) Chrome/129.0.0.0 Safari/537.36" version="24.7.17">
  <diagram name="PÃ¡gina-1" id="1BY9K5U6na2iq66d0ZNR">
    <mxGraphModel dx="2252" dy="2371" grid="1" gridSize="10" guides="1" tooltips="1" connect="1" arrows="1" fold="1" page="1" pageScale="1" pageWidth="827" pageHeight="1169" math="0" shadow="0">
      <root>
        <mxCell id="0" />
        <mxCell id="1" parent="0" />
        <mxCell id="_loHOUuicwl_s_tuSB9T-11" value="" style="ellipse;whiteSpace=wrap;html=1;aspect=fixed;" parent="1" vertex="1">
          <mxGeometry x="751.25" y="471.25" width="97.5" height="97.5" as="geometry" />
        </mxCell>
        <mxCell id="_loHOUuicwl_s_tuSB9T-10" value="" style="ellipse;whiteSpace=wrap;html=1;aspect=fixed;" parent="1" vertex="1">
          <mxGeometry x="651.25" y="561.25" width="97.5" height="97.5" as="geometry" />
        </mxCell>
        <mxCell id="_loHOUuicwl_s_tuSB9T-9" value="" style="ellipse;whiteSpace=wrap;html=1;aspect=fixed;" parent="1" vertex="1">
          <mxGeometry x="541.25" y="641.25" width="97.5" height="97.5" as="geometry" />
        </mxCell>
        <mxCell id="_loHOUuicwl_s_tuSB9T-8" value="" style="ellipse;whiteSpace=wrap;html=1;aspect=fixed;" parent="1" vertex="1">
          <mxGeometry x="401.25" y="641.25" width="97.5" height="97.5" as="geometry" />
        </mxCell>
        <mxCell id="_loHOUuicwl_s_tuSB9T-7" value="" style="ellipse;whiteSpace=wrap;html=1;aspect=fixed;" parent="1" vertex="1">
          <mxGeometry x="261.25" y="641.25" width="97.5" height="97.5" as="geometry" />
        </mxCell>
        <mxCell id="_loHOUuicwl_s_tuSB9T-6" value="" style="ellipse;whiteSpace=wrap;html=1;aspect=fixed;" parent="1" vertex="1">
          <mxGeometry x="131.25" y="601.25" width="97.5" height="97.5" as="geometry" />
        </mxCell>
        <mxCell id="_loHOUuicwl_s_tuSB9T-5" value="" style="ellipse;whiteSpace=wrap;html=1;aspect=fixed;" parent="1" vertex="1">
          <mxGeometry x="61.25" y="496.25" width="97.5" height="97.5" as="geometry" />
        </mxCell>
        <mxCell id="_loHOUuicwl_s_tuSB9T-4" value="" style="ellipse;whiteSpace=wrap;html=1;aspect=fixed;" parent="1" vertex="1">
          <mxGeometry x="291.25" y="52.5" width="97.5" height="97.5" as="geometry" />
        </mxCell>
        <mxCell id="_loHOUuicwl_s_tuSB9T-3" value="" style="ellipse;whiteSpace=wrap;html=1;aspect=fixed;" parent="1" vertex="1">
          <mxGeometry x="11.25" y="381.25" width="97.5" height="97.5" as="geometry" />
        </mxCell>
        <mxCell id="_loHOUuicwl_s_tuSB9T-2" value="" style="ellipse;whiteSpace=wrap;html=1;aspect=fixed;" parent="1" vertex="1">
          <mxGeometry x="11.25" y="251.25" width="97.5" height="97.5" as="geometry" />
        </mxCell>
        <mxCell id="_loHOUuicwl_s_tuSB9T-1" value="" style="ellipse;whiteSpace=wrap;html=1;aspect=fixed;" parent="1" vertex="1">
          <mxGeometry x="111.25" y="121.25" width="97.5" height="97.5" as="geometry" />
        </mxCell>
        <mxCell id="ewbYi8q5Yqpi-CikUo9b-65" value="" style="ellipse;whiteSpace=wrap;html=1;aspect=fixed;" parent="1" vertex="1">
          <mxGeometry x="532.5" y="-190" width="97.5" height="97.5" as="geometry" />
        </mxCell>
        <mxCell id="ewbYi8q5Yqpi-CikUo9b-1" value="&lt;font style=&quot;font-size: 36px;&quot;&gt;0&lt;/font&gt;" style="ellipse;whiteSpace=wrap;html=1;aspect=fixed;" parent="1" vertex="1">
          <mxGeometry x="370" y="360" width="80" height="80" as="geometry" />
        </mxCell>
        <mxCell id="ewbYi8q5Yqpi-CikUo9b-2" value="&lt;font style=&quot;font-size: 24px;&quot;&gt;1&lt;/font&gt;" style="ellipse;whiteSpace=wrap;html=1;aspect=fixed;" parent="1" vertex="1">
          <mxGeometry x="450" y="60" width="80" height="80" as="geometry" />
        </mxCell>
        <mxCell id="ewbYi8q5Yqpi-CikUo9b-3" value="&lt;font style=&quot;font-size: 24px;&quot;&gt;2&lt;/font&gt;" style="ellipse;whiteSpace=wrap;html=1;aspect=fixed;" parent="1" vertex="1">
          <mxGeometry x="590" y="70" width="80" height="80" as="geometry" />
        </mxCell>
        <mxCell id="ewbYi8q5Yqpi-CikUo9b-4" value="&lt;font style=&quot;font-size: 24px;&quot;&gt;3&lt;/font&gt;" style="ellipse;whiteSpace=wrap;html=1;aspect=fixed;" parent="1" vertex="1">
          <mxGeometry x="710" y="150" width="80" height="80" as="geometry" />
        </mxCell>
        <mxCell id="ewbYi8q5Yqpi-CikUo9b-5" value="&lt;font style=&quot;font-size: 24px;&quot;&gt;4&lt;/font&gt;" style="ellipse;whiteSpace=wrap;html=1;aspect=fixed;" parent="1" vertex="1">
          <mxGeometry x="780" y="240" width="80" height="80" as="geometry" />
        </mxCell>
        <mxCell id="ewbYi8q5Yqpi-CikUo9b-6" value="&lt;font style=&quot;font-size: 24px;&quot;&gt;5&lt;/font&gt;" style="ellipse;whiteSpace=wrap;html=1;aspect=fixed;" parent="1" vertex="1">
          <mxGeometry x="800" y="360" width="80" height="80" as="geometry" />
        </mxCell>
        <mxCell id="ewbYi8q5Yqpi-CikUo9b-8" value="&lt;font style=&quot;font-size: 24px;&quot;&gt;6&lt;/font&gt;" style="ellipse;whiteSpace=wrap;html=1;aspect=fixed;" parent="1" vertex="1">
          <mxGeometry x="760" y="480" width="80" height="80" as="geometry" />
        </mxCell>
        <mxCell id="ewbYi8q5Yqpi-CikUo9b-9" value="&lt;font style=&quot;font-size: 24px;&quot;&gt;7&lt;/font&gt;" style="ellipse;whiteSpace=wrap;html=1;aspect=fixed;" parent="1" vertex="1">
          <mxGeometry x="660" y="570" width="80" height="80" as="geometry" />
        </mxCell>
        <mxCell id="ewbYi8q5Yqpi-CikUo9b-10" value="&lt;font style=&quot;font-size: 24px;&quot;&gt;8&lt;/font&gt;" style="ellipse;whiteSpace=wrap;html=1;aspect=fixed;" parent="1" vertex="1">
          <mxGeometry x="550" y="650" width="80" height="80" as="geometry" />
        </mxCell>
        <mxCell id="ewbYi8q5Yqpi-CikUo9b-12" value="" style="endArrow=classic;html=1;rounded=0;exitX=0.731;exitY=0.055;exitDx=0;exitDy=0;exitPerimeter=0;entryX=0.5;entryY=1;entryDx=0;entryDy=0;" parent="1" source="ewbYi8q5Yqpi-CikUo9b-1" target="ewbYi8q5Yqpi-CikUo9b-2" edge="1">
          <mxGeometry width="50" height="50" relative="1" as="geometry">
            <mxPoint x="450" y="340" as="sourcePoint" />
            <mxPoint x="479.68" y="150" as="targetPoint" />
          </mxGeometry>
        </mxCell>
        <mxCell id="ewbYi8q5Yqpi-CikUo9b-13" value="&lt;font style=&quot;font-size: 24px;&quot;&gt;-&lt;/font&gt;" style="text;html=1;align=center;verticalAlign=middle;whiteSpace=wrap;rounded=0;" parent="1" vertex="1">
          <mxGeometry x="410" y="210" width="60" height="30" as="geometry" />
        </mxCell>
        <mxCell id="ewbYi8q5Yqpi-CikUo9b-15" value="" style="edgeStyle=elbowEdgeStyle;rounded=0;elbow=vertical;html=1;labelBackgroundColor=#ffffff;endArrow=classic;endFill=1;endSize=6;jettySize=auto;orthogonalLoop=1;strokeWidth=1;fontSize=14;" parent="1" edge="1">
          <mxGeometry width="60" height="60" relative="1" as="geometry">
            <mxPoint x="403" y="360" as="sourcePoint" />
            <mxPoint x="417" y="360" as="targetPoint" />
            <Array as="points">
              <mxPoint x="387" y="310" />
            </Array>
          </mxGeometry>
        </mxCell>
        <mxCell id="ewbYi8q5Yqpi-CikUo9b-16" value="&lt;font style=&quot;font-size: 18px;&quot;&gt;del&lt;/font&gt;" style="text;html=1;align=center;verticalAlign=middle;whiteSpace=wrap;rounded=0;" parent="1" vertex="1">
          <mxGeometry x="380" y="280" width="60" height="30" as="geometry" />
        </mxCell>
        <mxCell id="ewbYi8q5Yqpi-CikUo9b-17" value="" style="endArrow=classic;html=1;rounded=0;exitX=0.839;exitY=0.127;exitDx=0;exitDy=0;exitPerimeter=0;entryX=0;entryY=1;entryDx=0;entryDy=0;" parent="1" source="ewbYi8q5Yqpi-CikUo9b-1" target="ewbYi8q5Yqpi-CikUo9b-3" edge="1">
          <mxGeometry width="50" height="50" relative="1" as="geometry">
            <mxPoint x="570" y="383" as="sourcePoint" />
            <mxPoint x="621" y="170" as="targetPoint" />
          </mxGeometry>
        </mxCell>
        <mxCell id="ewbYi8q5Yqpi-CikUo9b-18" value="&lt;font style=&quot;font-size: 24px;&quot;&gt;d&lt;/font&gt;" style="text;html=1;align=center;verticalAlign=middle;whiteSpace=wrap;rounded=0;" parent="1" vertex="1">
          <mxGeometry x="490" y="210" width="60" height="30" as="geometry" />
        </mxCell>
        <mxCell id="ewbYi8q5Yqpi-CikUo9b-20" value="" style="endArrow=classic;html=1;rounded=0;entryX=0;entryY=1;entryDx=0;entryDy=0;" parent="1" source="ewbYi8q5Yqpi-CikUo9b-1" target="ewbYi8q5Yqpi-CikUo9b-4" edge="1">
          <mxGeometry width="50" height="50" relative="1" as="geometry">
            <mxPoint x="520" y="460" as="sourcePoint" />
            <mxPoint x="703.6800000000001" y="260" as="targetPoint" />
          </mxGeometry>
        </mxCell>
        <mxCell id="ewbYi8q5Yqpi-CikUo9b-21" value="&lt;font style=&quot;font-size: 24px;&quot;&gt;9&lt;/font&gt;" style="ellipse;whiteSpace=wrap;html=1;aspect=fixed;" parent="1" vertex="1">
          <mxGeometry x="410" y="650" width="80" height="80" as="geometry" />
        </mxCell>
        <mxCell id="ewbYi8q5Yqpi-CikUo9b-22" value="&lt;font style=&quot;font-size: 24px;&quot;&gt;10&lt;/font&gt;" style="ellipse;whiteSpace=wrap;html=1;aspect=fixed;" parent="1" vertex="1">
          <mxGeometry x="270" y="650" width="80" height="80" as="geometry" />
        </mxCell>
        <mxCell id="ewbYi8q5Yqpi-CikUo9b-23" value="&lt;font style=&quot;font-size: 24px;&quot;&gt;11&lt;/font&gt;" style="ellipse;whiteSpace=wrap;html=1;aspect=fixed;" parent="1" vertex="1">
          <mxGeometry x="140" y="610" width="80" height="80" as="geometry" />
        </mxCell>
        <mxCell id="ewbYi8q5Yqpi-CikUo9b-24" value="&lt;font style=&quot;font-size: 24px;&quot;&gt;12&lt;/font&gt;" style="ellipse;whiteSpace=wrap;html=1;aspect=fixed;" parent="1" vertex="1">
          <mxGeometry x="70" y="505" width="80" height="80" as="geometry" />
        </mxCell>
        <mxCell id="ewbYi8q5Yqpi-CikUo9b-25" value="&lt;font style=&quot;font-size: 24px;&quot;&gt;13&lt;/font&gt;" style="ellipse;whiteSpace=wrap;html=1;aspect=fixed;" parent="1" vertex="1">
          <mxGeometry x="20" y="390" width="80" height="80" as="geometry" />
        </mxCell>
        <mxCell id="ewbYi8q5Yqpi-CikUo9b-26" value="&lt;font style=&quot;font-size: 24px;&quot;&gt;14&lt;/font&gt;" style="ellipse;whiteSpace=wrap;html=1;aspect=fixed;" parent="1" vertex="1">
          <mxGeometry x="20" y="260" width="80" height="80" as="geometry" />
        </mxCell>
        <mxCell id="ewbYi8q5Yqpi-CikUo9b-27" value="&lt;font style=&quot;font-size: 24px;&quot;&gt;15&lt;/font&gt;" style="ellipse;whiteSpace=wrap;html=1;aspect=fixed;" parent="1" vertex="1">
          <mxGeometry x="120" y="130" width="80" height="80" as="geometry" />
        </mxCell>
        <mxCell id="ewbYi8q5Yqpi-CikUo9b-28" value="&lt;font style=&quot;font-size: 24px;&quot;&gt;16&lt;/font&gt;" style="ellipse;whiteSpace=wrap;html=1;aspect=fixed;" parent="1" vertex="1">
          <mxGeometry x="300" y="61.25" width="80" height="80" as="geometry" />
        </mxCell>
        <mxCell id="ewbYi8q5Yqpi-CikUo9b-30" value="" style="endArrow=classic;html=1;rounded=0;entryX=0.048;entryY=0.723;entryDx=0;entryDy=0;exitX=0.981;exitY=0.356;exitDx=0;exitDy=0;exitPerimeter=0;entryPerimeter=0;" parent="1" source="ewbYi8q5Yqpi-CikUo9b-1" target="ewbYi8q5Yqpi-CikUo9b-5" edge="1">
          <mxGeometry width="50" height="50" relative="1" as="geometry">
            <mxPoint x="455" y="390" as="sourcePoint" />
            <mxPoint x="732" y="228" as="targetPoint" />
          </mxGeometry>
        </mxCell>
        <mxCell id="ewbYi8q5Yqpi-CikUo9b-31" value="" style="endArrow=classic;html=1;rounded=0;entryX=0.01;entryY=0.391;entryDx=0;entryDy=0;entryPerimeter=0;exitX=1.002;exitY=0.472;exitDx=0;exitDy=0;exitPerimeter=0;" parent="1" source="ewbYi8q5Yqpi-CikUo9b-1" target="ewbYi8q5Yqpi-CikUo9b-6" edge="1">
          <mxGeometry width="50" height="50" relative="1" as="geometry">
            <mxPoint x="465" y="400" as="sourcePoint" />
            <mxPoint x="742" y="238" as="targetPoint" />
          </mxGeometry>
        </mxCell>
        <mxCell id="ewbYi8q5Yqpi-CikUo9b-32" value="" style="endArrow=classic;html=1;rounded=0;exitX=0.987;exitY=0.614;exitDx=0;exitDy=0;exitPerimeter=0;entryX=0.017;entryY=0.354;entryDx=0;entryDy=0;entryPerimeter=0;" parent="1" source="ewbYi8q5Yqpi-CikUo9b-1" target="_loHOUuicwl_s_tuSB9T-11" edge="1">
          <mxGeometry width="50" height="50" relative="1" as="geometry">
            <mxPoint x="475" y="410" as="sourcePoint" />
            <mxPoint x="730" y="480" as="targetPoint" />
          </mxGeometry>
        </mxCell>
        <mxCell id="ewbYi8q5Yqpi-CikUo9b-33" value="" style="endArrow=classic;html=1;rounded=0;entryX=0.103;entryY=0.19;entryDx=0;entryDy=0;exitX=0.967;exitY=0.689;exitDx=0;exitDy=0;exitPerimeter=0;entryPerimeter=0;" parent="1" source="ewbYi8q5Yqpi-CikUo9b-1" target="_loHOUuicwl_s_tuSB9T-10" edge="1">
          <mxGeometry width="50" height="50" relative="1" as="geometry">
            <mxPoint x="485" y="420" as="sourcePoint" />
            <mxPoint x="782" y="502" as="targetPoint" />
          </mxGeometry>
        </mxCell>
        <mxCell id="ewbYi8q5Yqpi-CikUo9b-34" value="" style="endArrow=classic;html=1;rounded=0;entryX=0.219;entryY=0.089;entryDx=0;entryDy=0;exitX=0.901;exitY=0.806;exitDx=0;exitDy=0;exitPerimeter=0;entryPerimeter=0;" parent="1" source="ewbYi8q5Yqpi-CikUo9b-1" target="_loHOUuicwl_s_tuSB9T-9" edge="1">
          <mxGeometry width="50" height="50" relative="1" as="geometry">
            <mxPoint x="495" y="430" as="sourcePoint" />
            <mxPoint x="792" y="512" as="targetPoint" />
          </mxGeometry>
        </mxCell>
        <mxCell id="ewbYi8q5Yqpi-CikUo9b-35" value="" style="endArrow=classic;html=1;rounded=0;entryX=0.486;entryY=-0.001;entryDx=0;entryDy=0;exitX=0.75;exitY=0.935;exitDx=0;exitDy=0;exitPerimeter=0;entryPerimeter=0;" parent="1" source="ewbYi8q5Yqpi-CikUo9b-1" target="_loHOUuicwl_s_tuSB9T-8" edge="1">
          <mxGeometry width="50" height="50" relative="1" as="geometry">
            <mxPoint x="505" y="440" as="sourcePoint" />
            <mxPoint x="802" y="522" as="targetPoint" />
          </mxGeometry>
        </mxCell>
        <mxCell id="ewbYi8q5Yqpi-CikUo9b-36" value="" style="endArrow=classic;html=1;rounded=0;entryX=0.609;entryY=0.012;entryDx=0;entryDy=0;exitX=0.5;exitY=1;exitDx=0;exitDy=0;entryPerimeter=0;" parent="1" source="ewbYi8q5Yqpi-CikUo9b-1" target="_loHOUuicwl_s_tuSB9T-7" edge="1">
          <mxGeometry width="50" height="50" relative="1" as="geometry">
            <mxPoint x="240" y="460" as="sourcePoint" />
            <mxPoint x="537" y="542" as="targetPoint" />
          </mxGeometry>
        </mxCell>
        <mxCell id="ewbYi8q5Yqpi-CikUo9b-38" value="" style="endArrow=classic;html=1;rounded=0;entryX=0.851;entryY=0.14;entryDx=0;entryDy=0;exitX=0;exitY=1;exitDx=0;exitDy=0;entryPerimeter=0;" parent="1" source="ewbYi8q5Yqpi-CikUo9b-1" target="_loHOUuicwl_s_tuSB9T-6" edge="1">
          <mxGeometry width="50" height="50" relative="1" as="geometry">
            <mxPoint x="300" y="390" as="sourcePoint" />
            <mxPoint x="200" y="600" as="targetPoint" />
          </mxGeometry>
        </mxCell>
        <mxCell id="ewbYi8q5Yqpi-CikUo9b-39" value="" style="endArrow=classic;html=1;rounded=0;entryX=0.902;entryY=0.195;entryDx=0;entryDy=0;exitX=0.049;exitY=0.717;exitDx=0;exitDy=0;exitPerimeter=0;entryPerimeter=0;" parent="1" source="ewbYi8q5Yqpi-CikUo9b-1" target="_loHOUuicwl_s_tuSB9T-5" edge="1">
          <mxGeometry width="50" height="50" relative="1" as="geometry">
            <mxPoint x="280" y="325" as="sourcePoint" />
            <mxPoint x="180" y="535" as="targetPoint" />
          </mxGeometry>
        </mxCell>
        <mxCell id="ewbYi8q5Yqpi-CikUo9b-40" value="" style="endArrow=classic;html=1;rounded=0;entryX=1.002;entryY=0.491;entryDx=0;entryDy=0;exitX=0;exitY=0.5;exitDx=0;exitDy=0;entryPerimeter=0;" parent="1" source="ewbYi8q5Yqpi-CikUo9b-1" target="_loHOUuicwl_s_tuSB9T-3" edge="1">
          <mxGeometry width="50" height="50" relative="1" as="geometry">
            <mxPoint x="300" y="220" as="sourcePoint" />
            <mxPoint x="200" y="430" as="targetPoint" />
          </mxGeometry>
        </mxCell>
        <mxCell id="ewbYi8q5Yqpi-CikUo9b-41" value="" style="endArrow=classic;html=1;rounded=0;entryX=0.991;entryY=0.604;entryDx=0;entryDy=0;exitX=0.022;exitY=0.357;exitDx=0;exitDy=0;exitPerimeter=0;entryPerimeter=0;" parent="1" source="ewbYi8q5Yqpi-CikUo9b-1" target="_loHOUuicwl_s_tuSB9T-2" edge="1">
          <mxGeometry width="50" height="50" relative="1" as="geometry">
            <mxPoint x="370" y="388" as="sourcePoint" />
            <mxPoint x="240" y="360" as="targetPoint" />
          </mxGeometry>
        </mxCell>
        <mxCell id="ewbYi8q5Yqpi-CikUo9b-42" value="" style="endArrow=classic;html=1;rounded=0;exitX=0.066;exitY=0.24;exitDx=0;exitDy=0;exitPerimeter=0;entryX=0.854;entryY=0.857;entryDx=0;entryDy=0;entryPerimeter=0;" parent="1" source="ewbYi8q5Yqpi-CikUo9b-1" target="_loHOUuicwl_s_tuSB9T-1" edge="1">
          <mxGeometry width="50" height="50" relative="1" as="geometry">
            <mxPoint x="382" y="399" as="sourcePoint" />
            <mxPoint x="200" y="210" as="targetPoint" />
          </mxGeometry>
        </mxCell>
        <mxCell id="ewbYi8q5Yqpi-CikUo9b-43" value="" style="endArrow=classic;html=1;rounded=0;entryX=0.533;entryY=1;entryDx=0;entryDy=0;exitX=0.225;exitY=0.083;exitDx=0;exitDy=0;exitPerimeter=0;entryPerimeter=0;" parent="1" source="ewbYi8q5Yqpi-CikUo9b-1" target="_loHOUuicwl_s_tuSB9T-4" edge="1">
          <mxGeometry width="50" height="50" relative="1" as="geometry">
            <mxPoint x="392" y="409" as="sourcePoint" />
            <mxPoint x="120" y="320" as="targetPoint" />
          </mxGeometry>
        </mxCell>
        <mxCell id="ewbYi8q5Yqpi-CikUo9b-45" value="&lt;font style=&quot;font-size: 24px;&quot;&gt;l&lt;/font&gt;&lt;span style=&quot;color: rgba(0, 0, 0, 0); font-family: monospace; font-size: 0px; text-align: start; text-wrap: nowrap;&quot;&gt;%3CmxGraphModel%3E%3Croot%3E%3CmxCell%20id%3D%220%22%2F%3E%3CmxCell%20id%3D%221%22%20parent%3D%220%22%2F%3E%3CmxCell%20id%3D%222%22%20value%3D%22%26lt%3Bfont%20style%3D%26quot%3Bfont-size%3A%2024px%3B%26quot%3B%26gt%3Bd%26lt%3B%2Ffont%26gt%3B%22%20style%3D%22text%3Bhtml%3D1%3Balign%3Dcenter%3BverticalAlign%3Dmiddle%3BwhiteSpace%3Dwrap%3Brounded%3D0%3B%22%20vertex%3D%221%22%20parent%3D%221%22%3E%3CmxGeometry%20x%3D%22490%22%20y%3D%22210%22%20width%3D%2260%22%20height%3D%2230%22%20as%3D%22geometry%22%2F%3E%3C%2FmxCell%3E%3C%2Froot%3E%3C%2FmxGraphModel%3E&lt;/span&gt;" style="text;html=1;align=center;verticalAlign=middle;whiteSpace=wrap;rounded=0;" parent="1" vertex="1">
          <mxGeometry x="590" y="240" width="60" height="30" as="geometry" />
        </mxCell>
        <mxCell id="ewbYi8q5Yqpi-CikUo9b-46" value="&lt;font style=&quot;font-size: 24px;&quot;&gt;&quot;&lt;/font&gt;" style="text;html=1;align=center;verticalAlign=middle;whiteSpace=wrap;rounded=0;" parent="1" vertex="1">
          <mxGeometry x="651.25" y="300" width="60" height="30" as="geometry" />
        </mxCell>
        <mxCell id="ewbYi8q5Yqpi-CikUo9b-47" value="&lt;font style=&quot;font-size: 24px;&quot;&gt;/&lt;/font&gt;" style="text;html=1;align=center;verticalAlign=middle;whiteSpace=wrap;rounded=0;" parent="1" vertex="1">
          <mxGeometry x="690" y="360" width="60" height="30" as="geometry" />
        </mxCell>
        <mxCell id="ewbYi8q5Yqpi-CikUo9b-48" value="&lt;font style=&quot;font-size: 24px;&quot;&gt;=&lt;/font&gt;" style="text;html=1;align=center;verticalAlign=middle;whiteSpace=wrap;rounded=0;" parent="1" vertex="1">
          <mxGeometry x="638.75" y="448.75" width="60" height="30" as="geometry" />
        </mxCell>
        <mxCell id="ewbYi8q5Yqpi-CikUo9b-49" value="&lt;font style=&quot;font-size: 24px;&quot;&gt;,&lt;/font&gt;" style="text;html=1;align=center;verticalAlign=middle;whiteSpace=wrap;rounded=0;" parent="1" vertex="1">
          <mxGeometry x="591.25" y="513.75" width="60" height="30" as="geometry" />
        </mxCell>
        <mxCell id="ewbYi8q5Yqpi-CikUo9b-51" value="&lt;font style=&quot;font-size: 24px;&quot;&gt;;&lt;/font&gt;" style="text;html=1;align=center;verticalAlign=middle;whiteSpace=wrap;rounded=0;" parent="1" vertex="1">
          <mxGeometry x="500" y="547.5" width="60" height="30" as="geometry" />
        </mxCell>
        <mxCell id="ewbYi8q5Yqpi-CikUo9b-52" value="&lt;font style=&quot;font-size: 24px;&quot;&gt;(&lt;/font&gt;" style="text;html=1;align=center;verticalAlign=middle;whiteSpace=wrap;rounded=0;" parent="1" vertex="1">
          <mxGeometry x="430" y="570" width="60" height="30" as="geometry" />
        </mxCell>
        <mxCell id="ewbYi8q5Yqpi-CikUo9b-53" value="&lt;font style=&quot;font-size: 24px;&quot;&gt;)&lt;/font&gt;" style="text;html=1;align=center;verticalAlign=middle;whiteSpace=wrap;rounded=0;" parent="1" vertex="1">
          <mxGeometry x="330" y="570" width="60" height="30" as="geometry" />
        </mxCell>
        <mxCell id="ewbYi8q5Yqpi-CikUo9b-54" value="&lt;font style=&quot;font-size: 24px;&quot;&gt;{&lt;/font&gt;" style="text;html=1;align=center;verticalAlign=middle;whiteSpace=wrap;rounded=0;" parent="1" vertex="1">
          <mxGeometry x="250" y="550" width="60" height="30" as="geometry" />
        </mxCell>
        <mxCell id="ewbYi8q5Yqpi-CikUo9b-55" value="&lt;font style=&quot;font-size: 24px;&quot;&gt;}&lt;/font&gt;" style="text;html=1;align=center;verticalAlign=middle;whiteSpace=wrap;rounded=0;" parent="1" vertex="1">
          <mxGeometry x="180" y="490" width="60" height="30" as="geometry" />
        </mxCell>
        <mxCell id="ewbYi8q5Yqpi-CikUo9b-56" value="&lt;font style=&quot;font-size: 24px;&quot;&gt;+&lt;/font&gt;" style="text;html=1;align=center;verticalAlign=middle;whiteSpace=wrap;rounded=0;" parent="1" vertex="1">
          <mxGeometry x="130" y="430" width="60" height="30" as="geometry" />
        </mxCell>
        <mxCell id="ewbYi8q5Yqpi-CikUo9b-57" value="&lt;font style=&quot;font-size: 24px;&quot;&gt;!&lt;/font&gt;" style="text;html=1;align=center;verticalAlign=middle;whiteSpace=wrap;rounded=0;" parent="1" vertex="1">
          <mxGeometry x="130" y="330" width="60" height="30" as="geometry" />
        </mxCell>
        <mxCell id="ewbYi8q5Yqpi-CikUo9b-58" value="&lt;font style=&quot;font-size: 24px;&quot;&gt;&amp;lt;&lt;/font&gt;" style="text;html=1;align=center;verticalAlign=middle;whiteSpace=wrap;rounded=0;" parent="1" vertex="1">
          <mxGeometry x="190" y="240" width="60" height="30" as="geometry" />
        </mxCell>
        <mxCell id="ewbYi8q5Yqpi-CikUo9b-60" value="&lt;font style=&quot;font-size: 24px;&quot;&gt;EOF&lt;/font&gt;" style="text;html=1;align=center;verticalAlign=middle;whiteSpace=wrap;rounded=0;" parent="1" vertex="1">
          <mxGeometry x="280" y="175" width="60" height="30" as="geometry" />
        </mxCell>
        <mxCell id="ewbYi8q5Yqpi-CikUo9b-61" value="&lt;font style=&quot;font-size: 24px;&quot;&gt;17&lt;/font&gt;" style="ellipse;whiteSpace=wrap;html=1;aspect=fixed;" parent="1" vertex="1">
          <mxGeometry x="541.25" y="-181.25" width="80" height="80" as="geometry" />
        </mxCell>
        <mxCell id="ewbYi8q5Yqpi-CikUo9b-63" value="" style="endArrow=classic;html=1;rounded=0;exitX=0.723;exitY=0.047;exitDx=0;exitDy=0;entryX=0.308;entryY=0.966;entryDx=0;entryDy=0;entryPerimeter=0;exitPerimeter=0;" parent="1" source="ewbYi8q5Yqpi-CikUo9b-2" target="ewbYi8q5Yqpi-CikUo9b-65" edge="1">
          <mxGeometry width="50" height="50" relative="1" as="geometry">
            <mxPoint x="738" as="sourcePoint" />
            <mxPoint x="570" y="-80" as="targetPoint" />
          </mxGeometry>
        </mxCell>
        <mxCell id="ewbYi8q5Yqpi-CikUo9b-64" value="&lt;font style=&quot;font-size: 24px;&quot;&gt;-&lt;/font&gt;" style="text;html=1;align=center;verticalAlign=middle;whiteSpace=wrap;rounded=0;" parent="1" vertex="1">
          <mxGeometry x="500" y="-40" width="60" height="30" as="geometry" />
        </mxCell>
        <mxCell id="ewbYi8q5Yqpi-CikUo9b-66" value="" style="ellipse;whiteSpace=wrap;html=1;aspect=fixed;" parent="1" vertex="1">
          <mxGeometry x="720" y="-150" width="97.5" height="97.5" as="geometry" />
        </mxCell>
        <mxCell id="ewbYi8q5Yqpi-CikUo9b-67" value="&lt;font style=&quot;font-size: 24px;&quot;&gt;18&lt;/font&gt;" style="ellipse;whiteSpace=wrap;html=1;aspect=fixed;" parent="1" vertex="1">
          <mxGeometry x="728.75" y="-141.25" width="80" height="80" as="geometry" />
        </mxCell>
        <mxCell id="ewbYi8q5Yqpi-CikUo9b-69" value="" style="endArrow=classic;html=1;rounded=0;exitX=1;exitY=0;exitDx=0;exitDy=0;entryX=0;entryY=1;entryDx=0;entryDy=0;" parent="1" source="ewbYi8q5Yqpi-CikUo9b-3" target="ewbYi8q5Yqpi-CikUo9b-66" edge="1">
          <mxGeometry width="50" height="50" relative="1" as="geometry">
            <mxPoint x="518" y="74" as="sourcePoint" />
            <mxPoint x="573" y="-86" as="targetPoint" />
          </mxGeometry>
        </mxCell>
        <mxCell id="ewbYi8q5Yqpi-CikUo9b-70" value="&lt;font style=&quot;font-size: 24px;&quot;&gt;c1&lt;/font&gt;" style="text;html=1;align=center;verticalAlign=middle;whiteSpace=wrap;rounded=0;" parent="1" vertex="1">
          <mxGeometry x="660" y="-48.75" width="60" height="30" as="geometry" />
        </mxCell>
        <mxCell id="ewbYi8q5Yqpi-CikUo9b-72" value="" style="edgeStyle=elbowEdgeStyle;rounded=0;elbow=vertical;html=1;labelBackgroundColor=#ffffff;endArrow=classic;endFill=1;endSize=6;jettySize=auto;orthogonalLoop=1;strokeWidth=1;fontSize=14;exitX=0.279;exitY=0.054;exitDx=0;exitDy=0;exitPerimeter=0;" parent="1" source="ewbYi8q5Yqpi-CikUo9b-3" edge="1">
          <mxGeometry width="60" height="60" relative="1" as="geometry">
            <mxPoint x="613" y="70" as="sourcePoint" />
            <mxPoint x="627" y="70" as="targetPoint" />
            <Array as="points">
              <mxPoint x="597" y="20" />
            </Array>
          </mxGeometry>
        </mxCell>
        <mxCell id="ewbYi8q5Yqpi-CikUo9b-73" value="&lt;font style=&quot;font-size: 24px;&quot;&gt;d&lt;/font&gt;" style="text;html=1;align=center;verticalAlign=middle;whiteSpace=wrap;rounded=0;" parent="1" vertex="1">
          <mxGeometry x="590" y="-10" width="60" height="30" as="geometry" />
        </mxCell>
        <mxCell id="ewbYi8q5Yqpi-CikUo9b-74" value="" style="ellipse;whiteSpace=wrap;html=1;aspect=fixed;" parent="1" vertex="1">
          <mxGeometry x="890" y="-27.5" width="97.5" height="97.5" as="geometry" />
        </mxCell>
        <mxCell id="ewbYi8q5Yqpi-CikUo9b-75" value="&lt;font style=&quot;font-size: 24px;&quot;&gt;19&lt;/font&gt;" style="ellipse;whiteSpace=wrap;html=1;aspect=fixed;" parent="1" vertex="1">
          <mxGeometry x="898.75" y="-18.75" width="80" height="80" as="geometry" />
        </mxCell>
        <mxCell id="ewbYi8q5Yqpi-CikUo9b-76" value="" style="endArrow=classic;html=1;rounded=0;exitX=1;exitY=0;exitDx=0;exitDy=0;entryX=0;entryY=1;entryDx=0;entryDy=0;" parent="1" source="ewbYi8q5Yqpi-CikUo9b-4" target="ewbYi8q5Yqpi-CikUo9b-74" edge="1">
          <mxGeometry width="50" height="50" relative="1" as="geometry">
            <mxPoint x="668" y="92" as="sourcePoint" />
            <mxPoint x="744" y="-57" as="targetPoint" />
          </mxGeometry>
        </mxCell>
        <mxCell id="ewbYi8q5Yqpi-CikUo9b-77" value="" style="ellipse;whiteSpace=wrap;html=1;aspect=fixed;" parent="1" vertex="1">
          <mxGeometry x="1050" y="146.25" width="97.5" height="97.5" as="geometry" />
        </mxCell>
        <mxCell id="ewbYi8q5Yqpi-CikUo9b-78" value="&lt;font style=&quot;font-size: 24px;&quot;&gt;20&lt;/font&gt;" style="ellipse;whiteSpace=wrap;html=1;aspect=fixed;" parent="1" vertex="1">
          <mxGeometry x="1058.75" y="155" width="80" height="80" as="geometry" />
        </mxCell>
        <mxCell id="ewbYi8q5Yqpi-CikUo9b-80" value="&lt;font style=&quot;font-size: 24px;&quot;&gt;21&lt;/font&gt;" style="ellipse;whiteSpace=wrap;html=1;aspect=fixed;" parent="1" vertex="1">
          <mxGeometry x="1098.75" y="351.25" width="80" height="80" as="geometry" />
        </mxCell>
        <mxCell id="ewbYi8q5Yqpi-CikUo9b-81" value="" style="endArrow=classic;html=1;rounded=0;exitX=1;exitY=0.5;exitDx=0;exitDy=0;entryX=0;entryY=0.5;entryDx=0;entryDy=0;" parent="1" source="ewbYi8q5Yqpi-CikUo9b-5" target="ewbYi8q5Yqpi-CikUo9b-77" edge="1">
          <mxGeometry width="50" height="50" relative="1" as="geometry">
            <mxPoint x="788" y="172" as="sourcePoint" />
            <mxPoint x="914" y="66" as="targetPoint" />
          </mxGeometry>
        </mxCell>
        <mxCell id="ewbYi8q5Yqpi-CikUo9b-82" value="" style="endArrow=classic;html=1;rounded=0;exitX=1;exitY=0.5;exitDx=0;exitDy=0;entryX=0;entryY=0.5;entryDx=0;entryDy=0;" parent="1" source="ewbYi8q5Yqpi-CikUo9b-6" target="ewbYi8q5Yqpi-CikUo9b-80" edge="1">
          <mxGeometry width="50" height="50" relative="1" as="geometry">
            <mxPoint x="870" y="290" as="sourcePoint" />
            <mxPoint x="1090.0000000000005" y="391.25" as="targetPoint" />
          </mxGeometry>
        </mxCell>
        <mxCell id="ewbYi8q5Yqpi-CikUo9b-84" value="" style="edgeStyle=elbowEdgeStyle;rounded=0;elbow=vertical;html=1;labelBackgroundColor=#ffffff;endArrow=classic;endFill=1;endSize=6;jettySize=auto;orthogonalLoop=1;strokeWidth=1;fontSize=14;exitX=0.236;exitY=0.071;exitDx=0;exitDy=0;exitPerimeter=0;" parent="1" source="ewbYi8q5Yqpi-CikUo9b-4" edge="1">
          <mxGeometry width="60" height="60" relative="1" as="geometry">
            <mxPoint x="728.75" y="155" as="sourcePoint" />
            <mxPoint x="743.75" y="151" as="targetPoint" />
            <Array as="points">
              <mxPoint x="713.75" y="101" />
            </Array>
          </mxGeometry>
        </mxCell>
        <mxCell id="ewbYi8q5Yqpi-CikUo9b-85" value="&lt;font style=&quot;font-size: 24px;&quot;&gt;c2&lt;/font&gt;" style="text;html=1;align=center;verticalAlign=middle;whiteSpace=wrap;rounded=0;" parent="1" vertex="1">
          <mxGeometry x="691.25" y="61.25" width="60" height="30" as="geometry" />
        </mxCell>
        <mxCell id="ewbYi8q5Yqpi-CikUo9b-86" value="&lt;font style=&quot;font-size: 24px;&quot;&gt;c3&lt;/font&gt;" style="text;html=1;align=center;verticalAlign=middle;whiteSpace=wrap;rounded=0;" parent="1" vertex="1">
          <mxGeometry x="817.5" y="61.25" width="60" height="30" as="geometry" />
        </mxCell>
        <mxCell id="ewbYi8q5Yqpi-CikUo9b-87" value="" style="edgeStyle=elbowEdgeStyle;rounded=0;elbow=vertical;html=1;labelBackgroundColor=#ffffff;endArrow=classic;endFill=1;endSize=6;jettySize=auto;orthogonalLoop=1;strokeWidth=1;fontSize=14;exitX=0.236;exitY=0.071;exitDx=0;exitDy=0;exitPerimeter=0;entryX=0.748;entryY=0.058;entryDx=0;entryDy=0;entryPerimeter=0;" parent="1" target="ewbYi8q5Yqpi-CikUo9b-5" edge="1">
          <mxGeometry width="60" height="60" relative="1" as="geometry">
            <mxPoint x="825.25" y="240" as="sourcePoint" />
            <mxPoint x="840" y="235" as="targetPoint" />
            <Array as="points">
              <mxPoint x="810" y="185" />
            </Array>
          </mxGeometry>
        </mxCell>
        <mxCell id="ewbYi8q5Yqpi-CikUo9b-88" value="&lt;font style=&quot;font-size: 24px;&quot;&gt;c4&lt;/font&gt;" style="text;html=1;align=center;verticalAlign=middle;whiteSpace=wrap;rounded=0;" parent="1" vertex="1">
          <mxGeometry x="800" y="155" width="60" height="30" as="geometry" />
        </mxCell>
        <mxCell id="ewbYi8q5Yqpi-CikUo9b-89" value="&lt;font style=&quot;font-size: 24px;&quot;&gt;&quot;&lt;/font&gt;" style="text;html=1;align=center;verticalAlign=middle;whiteSpace=wrap;rounded=0;" parent="1" vertex="1">
          <mxGeometry x="940" y="200" width="60" height="30" as="geometry" />
        </mxCell>
        <mxCell id="ewbYi8q5Yqpi-CikUo9b-90" value="&lt;font style=&quot;font-size: 24px;&quot;&gt;*&lt;/font&gt;" style="text;html=1;align=center;verticalAlign=middle;whiteSpace=wrap;rounded=0;" parent="1" vertex="1">
          <mxGeometry x="960" y="370" width="60" height="30" as="geometry" />
        </mxCell>
        <mxCell id="ewbYi8q5Yqpi-CikUo9b-91" value="" style="edgeStyle=elbowEdgeStyle;rounded=0;elbow=vertical;html=1;labelBackgroundColor=#ffffff;endArrow=classic;endFill=1;endSize=6;jettySize=auto;orthogonalLoop=1;strokeWidth=1;fontSize=14;exitX=0.5;exitY=0;exitDx=0;exitDy=0;entryX=0.687;entryY=0.042;entryDx=0;entryDy=0;entryPerimeter=0;" parent="1" source="ewbYi8q5Yqpi-CikUo9b-80" target="ewbYi8q5Yqpi-CikUo9b-80" edge="1">
          <mxGeometry width="60" height="60" relative="1" as="geometry">
            <mxPoint x="1138.75" y="355" as="sourcePoint" />
            <mxPoint x="1153.5" y="360" as="targetPoint" />
            <Array as="points">
              <mxPoint x="1123.5" y="300" />
            </Array>
          </mxGeometry>
        </mxCell>
        <mxCell id="ewbYi8q5Yqpi-CikUo9b-92" value="&lt;font style=&quot;font-size: 24px;&quot;&gt;c5&lt;/font&gt;" style="text;html=1;align=center;verticalAlign=middle;whiteSpace=wrap;rounded=0;" parent="1" vertex="1">
          <mxGeometry x="1098.75" y="270" width="60" height="30" as="geometry" />
        </mxCell>
        <mxCell id="ewbYi8q5Yqpi-CikUo9b-94" value="&lt;font style=&quot;font-size: 24px;&quot;&gt;22&lt;/font&gt;" style="ellipse;whiteSpace=wrap;html=1;aspect=fixed;" parent="1" vertex="1">
          <mxGeometry x="1098.75" y="490" width="80" height="80" as="geometry" />
        </mxCell>
        <mxCell id="ewbYi8q5Yqpi-CikUo9b-95" value="" style="endArrow=classic;html=1;rounded=0;exitX=0.139;exitY=0.841;exitDx=0;exitDy=0;entryX=0.157;entryY=0.121;entryDx=0;entryDy=0;exitPerimeter=0;entryPerimeter=0;" parent="1" source="ewbYi8q5Yqpi-CikUo9b-80" target="ewbYi8q5Yqpi-CikUo9b-94" edge="1">
          <mxGeometry width="50" height="50" relative="1" as="geometry">
            <mxPoint x="1110" y="420" as="sourcePoint" />
            <mxPoint x="1110" y="478.75" as="targetPoint" />
          </mxGeometry>
        </mxCell>
        <mxCell id="ewbYi8q5Yqpi-CikUo9b-96" value="&lt;font style=&quot;font-size: 24px;&quot;&gt;*&lt;/font&gt;" style="text;html=1;align=center;verticalAlign=middle;whiteSpace=wrap;rounded=0;" parent="1" vertex="1">
          <mxGeometry x="1066.25" y="441.25" width="60" height="30" as="geometry" />
        </mxCell>
        <mxCell id="ewbYi8q5Yqpi-CikUo9b-101" value="&lt;font style=&quot;font-size: 24px;&quot;&gt;/&lt;/font&gt;" style="text;html=1;align=center;verticalAlign=middle;whiteSpace=wrap;rounded=0;" parent="1" vertex="1">
          <mxGeometry x="940" y="490" width="60" height="30" as="geometry" />
        </mxCell>
        <mxCell id="_loHOUuicwl_s_tuSB9T-16" value="" style="endArrow=classic;html=1;rounded=0;entryX=0;entryY=0;entryDx=0;entryDy=0;" parent="1" target="ewbYi8q5Yqpi-CikUo9b-1" edge="1">
          <mxGeometry width="50" height="50" relative="1" as="geometry">
            <mxPoint x="320" y="260" as="sourcePoint" />
            <mxPoint x="380" y="370" as="targetPoint" />
          </mxGeometry>
        </mxCell>
        <mxCell id="_loHOUuicwl_s_tuSB9T-17" value="&lt;font color=&quot;#0381ff&quot; style=&quot;font-size: 24px;&quot;&gt;G1&lt;/font&gt;" style="text;html=1;align=center;verticalAlign=middle;whiteSpace=wrap;rounded=0;" parent="1" vertex="1">
          <mxGeometry x="420" y="180" width="60" height="30" as="geometry" />
        </mxCell>
        <mxCell id="_loHOUuicwl_s_tuSB9T-19" value="&lt;font color=&quot;#0381ff&quot; style=&quot;font-size: 24px;&quot;&gt;G2&lt;/font&gt;" style="text;html=1;align=center;verticalAlign=middle;whiteSpace=wrap;rounded=0;" parent="1" vertex="1">
          <mxGeometry x="490" y="-78.75" width="60" height="30" as="geometry" />
        </mxCell>
        <mxCell id="_loHOUuicwl_s_tuSB9T-20" value="&lt;font color=&quot;#0381ff&quot; style=&quot;font-size: 24px;&quot;&gt;D1&lt;/font&gt;" style="text;html=1;align=center;verticalAlign=middle;whiteSpace=wrap;rounded=0;" parent="1" vertex="1">
          <mxGeometry x="510" y="175" width="60" height="30" as="geometry" />
        </mxCell>
        <mxCell id="_loHOUuicwl_s_tuSB9T-21" value="&lt;font color=&quot;#0381ff&quot; style=&quot;font-size: 24px;&quot;&gt;D2&lt;/font&gt;" style="text;html=1;align=center;verticalAlign=middle;whiteSpace=wrap;rounded=0;" parent="1" vertex="1">
          <mxGeometry x="560" width="60" height="30" as="geometry" />
        </mxCell>
        <mxCell id="_loHOUuicwl_s_tuSB9T-22" value="&lt;font color=&quot;#0381ff&quot;&gt;&lt;span style=&quot;font-size: 24px;&quot;&gt;D3&lt;/span&gt;&lt;/font&gt;" style="text;html=1;align=center;verticalAlign=middle;whiteSpace=wrap;rounded=0;" parent="1" vertex="1">
          <mxGeometry x="650" y="-18.75" width="60" height="30" as="geometry" />
        </mxCell>
        <mxCell id="_loHOUuicwl_s_tuSB9T-23" value="&lt;font color=&quot;#0381ff&quot; style=&quot;font-size: 24px;&quot;&gt;I1&lt;/font&gt;" style="text;html=1;align=center;verticalAlign=middle;whiteSpace=wrap;rounded=0;" parent="1" vertex="1">
          <mxGeometry x="620" y="213.75" width="60" height="30" as="geometry" />
        </mxCell>
        <mxCell id="_loHOUuicwl_s_tuSB9T-24" value="&lt;font color=&quot;#0381ff&quot; style=&quot;font-size: 24px;&quot;&gt;I2&lt;/font&gt;" style="text;html=1;align=center;verticalAlign=middle;whiteSpace=wrap;rounded=0;" parent="1" vertex="1">
          <mxGeometry x="720" y="60" width="60" height="30" as="geometry" />
        </mxCell>
        <mxCell id="_loHOUuicwl_s_tuSB9T-25" value="&lt;font color=&quot;#0381ff&quot; style=&quot;font-size: 24px;&quot;&gt;I3&lt;/font&gt;" style="text;html=1;align=center;verticalAlign=middle;whiteSpace=wrap;rounded=0;" parent="1" vertex="1">
          <mxGeometry x="788.75" y="80" width="60" height="30" as="geometry" />
        </mxCell>
        <mxCell id="_loHOUuicwl_s_tuSB9T-26" value="&lt;font color=&quot;#0381ff&quot; style=&quot;font-size: 24px;&quot;&gt;L1&lt;/font&gt;" style="text;html=1;align=center;verticalAlign=middle;whiteSpace=wrap;rounded=0;" parent="1" vertex="1">
          <mxGeometry x="680" y="280" width="60" height="30" as="geometry" />
        </mxCell>
        <mxCell id="_loHOUuicwl_s_tuSB9T-29" value="&lt;font color=&quot;#0381ff&quot; style=&quot;font-size: 24px;&quot;&gt;L2&lt;/font&gt;" style="text;html=1;align=center;verticalAlign=middle;whiteSpace=wrap;rounded=0;" parent="1" vertex="1">
          <mxGeometry x="830" y="155" width="60" height="30" as="geometry" />
        </mxCell>
        <mxCell id="_loHOUuicwl_s_tuSB9T-30" value="&lt;font color=&quot;#0381ff&quot; style=&quot;font-size: 24px;&quot;&gt;L3&lt;/font&gt;" style="text;html=1;align=center;verticalAlign=middle;whiteSpace=wrap;rounded=0;" parent="1" vertex="1">
          <mxGeometry x="908.75" y="205" width="60" height="30" as="geometry" />
        </mxCell>
        <mxCell id="_loHOUuicwl_s_tuSB9T-31" value="&lt;font color=&quot;#0381ff&quot; style=&quot;font-size: 24px;&quot;&gt;C&lt;/font&gt;" style="text;html=1;align=center;verticalAlign=middle;whiteSpace=wrap;rounded=0;" parent="1" vertex="1">
          <mxGeometry x="711.25" y="360" width="60" height="30" as="geometry" />
        </mxCell>
        <mxCell id="_loHOUuicwl_s_tuSB9T-33" value="" style="endArrow=classic;html=1;rounded=0;entryX=1.002;entryY=0.543;entryDx=0;entryDy=0;entryPerimeter=0;exitX=0.077;exitY=0.242;exitDx=0;exitDy=0;exitPerimeter=0;" parent="1" source="ewbYi8q5Yqpi-CikUo9b-94" target="ewbYi8q5Yqpi-CikUo9b-1" edge="1">
          <mxGeometry width="50" height="50" relative="1" as="geometry">
            <mxPoint x="942" y="476" as="sourcePoint" />
            <mxPoint x="560" y="410" as="targetPoint" />
          </mxGeometry>
        </mxCell>
        <mxCell id="_loHOUuicwl_s_tuSB9T-36" value="&lt;font color=&quot;#0381ff&quot; style=&quot;font-size: 24px;&quot;&gt;C&lt;/font&gt;" style="text;html=1;align=center;verticalAlign=middle;whiteSpace=wrap;rounded=0;" parent="1" vertex="1">
          <mxGeometry x="987.5" y="360" width="60" height="30" as="geometry" />
        </mxCell>
        <mxCell id="_loHOUuicwl_s_tuSB9T-37" value="&lt;font color=&quot;#0381ff&quot; style=&quot;font-size: 24px;&quot;&gt;C&lt;/font&gt;" style="text;html=1;align=center;verticalAlign=middle;whiteSpace=wrap;rounded=0;" parent="1" vertex="1">
          <mxGeometry x="1130" y="270" width="60" height="30" as="geometry" />
        </mxCell>
        <mxCell id="_loHOUuicwl_s_tuSB9T-38" value="&lt;font color=&quot;#0381ff&quot; style=&quot;font-size: 24px;&quot;&gt;C&lt;/font&gt;" style="text;html=1;align=center;verticalAlign=middle;whiteSpace=wrap;rounded=0;" parent="1" vertex="1">
          <mxGeometry x="1047.5" y="440" width="60" height="30" as="geometry" />
        </mxCell>
        <mxCell id="_loHOUuicwl_s_tuSB9T-39" value="&lt;font color=&quot;#0381ff&quot; style=&quot;font-size: 24px;&quot;&gt;C&lt;/font&gt;" style="text;html=1;align=center;verticalAlign=middle;whiteSpace=wrap;rounded=0;" parent="1" vertex="1">
          <mxGeometry x="960" y="496.25" width="60" height="30" as="geometry" />
        </mxCell>
        <mxCell id="_loHOUuicwl_s_tuSB9T-41" value="&lt;font color=&quot;#0381ff&quot; style=&quot;font-size: 24px;&quot;&gt;A6&lt;/font&gt;" style="text;html=1;align=center;verticalAlign=middle;whiteSpace=wrap;rounded=0;" parent="1" vertex="1">
          <mxGeometry x="668.75" y="450" width="60" height="30" as="geometry" />
        </mxCell>
        <mxCell id="_loHOUuicwl_s_tuSB9T-42" value="&lt;font color=&quot;#0381ff&quot; style=&quot;font-size: 24px;&quot;&gt;A7&lt;/font&gt;" style="text;html=1;align=center;verticalAlign=middle;whiteSpace=wrap;rounded=0;" parent="1" vertex="1">
          <mxGeometry x="590" y="496.25" width="60" height="30" as="geometry" />
        </mxCell>
        <mxCell id="_loHOUuicwl_s_tuSB9T-43" value="&lt;font color=&quot;#0381ff&quot; style=&quot;font-size: 24px;&quot;&gt;A8&lt;/font&gt;" style="text;html=1;align=center;verticalAlign=middle;whiteSpace=wrap;rounded=0;" parent="1" vertex="1">
          <mxGeometry x="530" y="563.75" width="60" height="30" as="geometry" />
        </mxCell>
        <mxCell id="_loHOUuicwl_s_tuSB9T-44" value="&lt;font color=&quot;#0381ff&quot; style=&quot;font-size: 24px;&quot;&gt;A9&lt;/font&gt;" style="text;html=1;align=center;verticalAlign=middle;whiteSpace=wrap;rounded=0;" parent="1" vertex="1">
          <mxGeometry x="440" y="601.25" width="60" height="30" as="geometry" />
        </mxCell>
        <mxCell id="_loHOUuicwl_s_tuSB9T-45" value="&lt;font color=&quot;#0381ff&quot; style=&quot;font-size: 24px;&quot;&gt;A10&lt;/font&gt;" style="text;html=1;align=center;verticalAlign=middle;whiteSpace=wrap;rounded=0;" parent="1" vertex="1">
          <mxGeometry x="340" y="601.25" width="60" height="30" as="geometry" />
        </mxCell>
        <mxCell id="_loHOUuicwl_s_tuSB9T-46" value="&lt;font color=&quot;#0381ff&quot; style=&quot;font-size: 24px;&quot;&gt;A11&lt;/font&gt;" style="text;html=1;align=center;verticalAlign=middle;whiteSpace=wrap;rounded=0;" parent="1" vertex="1">
          <mxGeometry x="250" y="580" width="60" height="30" as="geometry" />
        </mxCell>
        <mxCell id="_loHOUuicwl_s_tuSB9T-47" value="&lt;font color=&quot;#0381ff&quot; style=&quot;font-size: 24px;&quot;&gt;A12&lt;/font&gt;" style="text;html=1;align=center;verticalAlign=middle;whiteSpace=wrap;rounded=0;" parent="1" vertex="1">
          <mxGeometry x="220" y="483.75" width="60" height="30" as="geometry" />
        </mxCell>
        <mxCell id="_loHOUuicwl_s_tuSB9T-48" value="&lt;font color=&quot;#0381ff&quot; style=&quot;font-size: 24px;&quot;&gt;A13&lt;/font&gt;" style="text;html=1;align=center;verticalAlign=middle;whiteSpace=wrap;rounded=0;" parent="1" vertex="1">
          <mxGeometry x="168.75" y="420" width="60" height="30" as="geometry" />
        </mxCell>
        <mxCell id="_loHOUuicwl_s_tuSB9T-49" value="&lt;font color=&quot;#0381ff&quot; style=&quot;font-size: 24px;&quot;&gt;A14&lt;/font&gt;" style="text;html=1;align=center;verticalAlign=middle;whiteSpace=wrap;rounded=0;" parent="1" vertex="1">
          <mxGeometry x="168.75" y="348.75" width="60" height="30" as="geometry" />
        </mxCell>
        <mxCell id="_loHOUuicwl_s_tuSB9T-50" value="&lt;font color=&quot;#0381ff&quot; style=&quot;font-size: 24px;&quot;&gt;A15&lt;/font&gt;" style="text;html=1;align=center;verticalAlign=middle;whiteSpace=wrap;rounded=0;" parent="1" vertex="1">
          <mxGeometry x="200" y="265" width="60" height="30" as="geometry" />
        </mxCell>
        <mxCell id="_loHOUuicwl_s_tuSB9T-51" value="&lt;font color=&quot;#0381ff&quot; style=&quot;font-size: 24px;&quot;&gt;A16&lt;/font&gt;" style="text;html=1;align=center;verticalAlign=middle;whiteSpace=wrap;rounded=0;" parent="1" vertex="1">
          <mxGeometry x="270" y="150" width="60" height="30" as="geometry" />
        </mxCell>
        <mxCell id="_loHOUuicwl_s_tuSB9T-52" value="&lt;font color=&quot;#0381ff&quot; style=&quot;font-size: 24px;&quot;&gt;C&lt;/font&gt;" style="text;html=1;align=center;verticalAlign=middle;whiteSpace=wrap;rounded=0;" parent="1" vertex="1">
          <mxGeometry x="380" y="260" width="60" height="30" as="geometry" />
        </mxCell>
        <mxCell id="F41Z0Gir5tUoZVxfdJ0h-1" value="" style="endArrow=classic;html=1;rounded=0;entryX=0.906;entryY=0.796;entryDx=0;entryDy=0;entryPerimeter=0;exitX=1;exitY=0;exitDx=0;exitDy=0;" edge="1" parent="1" source="ewbYi8q5Yqpi-CikUo9b-94" target="ewbYi8q5Yqpi-CikUo9b-80">
          <mxGeometry width="50" height="50" relative="1" as="geometry">
            <mxPoint x="1159.91" y="478.75" as="sourcePoint" />
            <mxPoint x="1159.91" y="429" as="targetPoint" />
          </mxGeometry>
        </mxCell>
        <mxCell id="F41Z0Gir5tUoZVxfdJ0h-2" value="&lt;font style=&quot;font-size: 24px;&quot;&gt;c5&lt;/font&gt;" style="text;html=1;align=center;verticalAlign=middle;whiteSpace=wrap;rounded=0;" vertex="1" parent="1">
          <mxGeometry x="1158.75" y="450" width="60" height="30" as="geometry" />
        </mxCell>
        <mxCell id="F41Z0Gir5tUoZVxfdJ0h-3" value="&lt;font color=&quot;#0381ff&quot; style=&quot;font-size: 24px;&quot;&gt;C&lt;/font&gt;" style="text;html=1;align=center;verticalAlign=middle;whiteSpace=wrap;rounded=0;" vertex="1" parent="1">
          <mxGeometry x="1190" y="448.75" width="60" height="30" as="geometry" />
        </mxCell>
      </root>
    </mxGraphModel>
  </diagram>
</mxfile>
